{
  "accessors": [
    {
      "bufferView": 2,
      "componentType": 5126,
      "count": 31692,
      "max": [
        51.502899169921875,
        0.6335999965667725,
        64.83769989013672
      ],
      "min": [
        -51.502899169921875,
        -74.57649993896484,
        -41.819698333740234
      ],
      "type": "VEC3"
    },
    {
      "bufferView": 2,
      "byteOffset": 380304,
      "componentType": 5126,
      "count": 31692,
      "max": [
        0.9999799728393555,
        0.9999998807907104,
        0.9999113082885742
      ],
      "min": [
        -0.9999799728393555,
        -0.9999808073043823,
        -0.9999994039535522
      ],
      "type": "VEC3"
    },
    {
      "bufferView": 1,
      "componentType": 5126,
      "count": 31692,
      "max": [
        0.9937000274658203,
        0.9883000254631042
      ],
      "min": [
        0.017100000753998756,
        0.02160000056028366
      ],
      "type": "VEC2"
    },
    {
      "bufferView": 0,
      "componentType": 5125,
      "count": 178704,
      "type": "SCALAR"
    }
  ],
  "asset": {
    "extras": {
      "author": "andreysouzanascimento692 (https://sketchfab.com/andreysouzanascimento692)",
      "license": "CC-BY-4.0 (http://creativecommons.org/licenses/by/4.0/)",
      "source": "https://sketchfab.com/3d-models/sea-lion-v2-v1-ed37ed3af4be435e89bc9aa355e58a8e",
      "title": "Sea Lion_v2 v1"
    },
    "generator": "Sketchfab-15.87.0",
    "version": "2.0"
  },
  "bufferViews": [
    {
      "buffer": 0,
      "byteLength": 714816,
      "name": "floatBufferViews",
      "target": 34963
    },
    {
      "buffer": 0,
      "byteLength": 253536,
      "byteOffset": 714816,
      "byteStride": 8,
      "name": "floatBufferViews",
      "target": 34962
    },
    {
      "buffer": 0,
      "byteLength": 760608,
      "byteOffset": 968352,
      "byteStride": 12,
      "name": "floatBufferViews",
      "target": 34962
    }
  ],
  "buffers": [
    {
      "byteLength": 1728960,
      "uri": "scene.bin"
    }
  ],
  "images": [
    {
      "uri": "textures/10041_SeaLion_v1_baseColor.jpeg"
    }
  ],
  "materials": [
    {
      "doubleSided": true,
      "emissiveTexture": {
        "index": 0
      },
      "name": "10041_SeaLion_v1",
      "pbrMetallicRoughness": {
        "baseColorTexture": {
          "index": 0
        },
        "metallicFactor": 0.0,
        "roughnessFactor": 0.9430958582182987
      }
    }
  ],
  "meshes": [
    {
      "name": "Object_0",
      "primitives": [
        {
          "attributes": {
            "NORMAL": 1,
            "POSITION": 0,
            "TEXCOORD_0": 2
          },
          "indices": 3,
          "material": 0,
          "mode": 4
        }
      ]
    }
  ],
  "nodes": [
    {
      "children": [
        1
      ],
      "matrix": [
        1.0,
        0.0,
        0.0,
        0.0,
        0.0,
        2.220446049250313e-16,
        -1.0,
        0.0,
        0.0,
        1.0,
        2.220446049250313e-16,
        0.0,
        0.0,
        0.0,
        0.0,
        1.0
      ],
      "name": "Sketchfab_model"
    },
    {
      "children": [
        2
      ],
      "name": "10041_sealion_v1_L3.obj.cleaner.materialmerger.gles"
    },
    {
      "mesh": 0,
      "name": "Object_2"
    }
  ],
  "samplers": [
    {
      "magFilter": 9729,
      "minFilter": 9987,
      "wrapS": 10497,
      "wrapT": 10497
    }
  ],
  "scene": 0,
  "scenes": [
    {
      "name": "Sketchfab_Scene",
      "nodes": [
        0
      ]
    }
  ],
  "textures": [
    {
      "sampler": 0,
      "source": 0
    }
  ]
}
